<?xml version="1.0" encoding="UTF-8"?>
<!DOCTYPE svg PUBLIC "-//W3C//DTD SVG 1.1//EN" "http://www.w3.org/Graphics/SVG/1.1/DTD/svg11.dtd">
<svg xmlns="http://www.w3.org/2000/svg" style="background: transparent; background-color: transparent; color-scheme: light dark;" xmlns:xlink="http://www.w3.org/1999/xlink" version="1.1" width="50px" height="50px" viewBox="0 0 50 50"><defs/><g><g data-cell-id="0"><g data-cell-id="1"><g data-cell-id="GxKN4E7oZEfdlFyxq9VF-5"><g transform="translate(0.5,0.5)"><rect x="0" y="0" width="50" height="50" fill="none" stroke="none" pointer-events="all"/><path d="M 16.42 0 C 15.85 0.01 15.39 0.48 15.4 1.04 L 15.4 5.9 L 8.55 5.9 C 7.15 5.9 6 7.05 6 8.44 L 6 15.52 L 1.09 15.52 C 0.72 15.51 0.37 15.7 0.18 16.02 C -0.01 16.34 -0.01 16.74 0.18 17.06 C 0.37 17.38 0.72 17.58 1.09 17.57 L 6 17.57 L 6 21.2 L 1.09 21.2 C 0.72 21.2 0.38 21.4 0.2 21.72 C 0.02 22.03 0.02 22.43 0.2 22.74 C 0.38 23.06 0.72 23.26 1.09 23.26 L 6 23.26 L 6 26.89 L 1.09 26.89 C 0.72 26.88 0.37 27.08 0.18 27.4 C -0.01 27.72 -0.01 28.12 0.18 28.44 C 0.37 28.76 0.72 28.95 1.09 28.94 L 6 28.94 L 6 32.58 L 1.09 32.58 C 0.52 32.58 0.06 33.04 0.06 33.61 C 0.06 34.17 0.52 34.63 1.09 34.63 L 6 34.63 L 6 41.23 C 6 42.62 7.15 43.77 8.55 43.77 L 15.4 43.77 L 15.4 48.91 C 15.4 49.27 15.6 49.61 15.92 49.8 C 16.24 49.98 16.63 49.98 16.95 49.8 C 17.27 49.61 17.46 49.27 17.46 48.91 L 17.46 43.77 L 21.12 43.77 L 21.12 48.91 C 21.12 49.27 21.32 49.61 21.64 49.8 C 21.96 49.98 22.35 49.98 22.67 49.8 C 22.99 49.61 23.18 49.27 23.18 48.91 L 23.18 43.77 L 26.84 43.77 L 26.84 48.91 C 26.84 49.27 27.04 49.61 27.36 49.8 C 27.67 49.98 28.07 49.98 28.39 49.8 C 28.7 49.61 28.9 49.27 28.9 48.91 L 28.9 43.77 L 32.56 43.77 L 32.56 48.91 C 32.56 49.27 32.76 49.61 33.08 49.8 C 33.39 49.98 33.79 49.98 34.11 49.8 C 34.42 49.61 34.62 49.27 34.62 48.91 L 34.62 43.77 L 41.51 43.77 C 42.9 43.77 44.05 42.62 44.05 41.23 L 44.05 34.63 L 48.91 34.63 C 49.48 34.63 49.94 34.17 49.94 33.61 C 49.94 33.04 49.48 32.58 48.91 32.58 L 44.05 32.58 L 44.05 28.94 L 48.91 28.94 C 49.28 28.95 49.63 28.76 49.82 28.44 C 50.01 28.12 50.01 27.72 49.82 27.4 C 49.63 27.08 49.28 26.88 48.91 26.89 L 44.05 26.89 L 44.05 23.26 L 48.91 23.26 C 49.28 23.26 49.62 23.06 49.8 22.74 C 49.98 22.43 49.98 22.03 49.8 21.72 C 49.62 21.4 49.28 21.2 48.91 21.2 L 44.05 21.2 L 44.05 17.57 L 48.91 17.57 C 49.28 17.58 49.63 17.38 49.82 17.06 C 50.01 16.74 50.01 16.34 49.82 16.02 C 49.63 15.7 49.28 15.51 48.91 15.52 L 44.05 15.52 L 44.05 8.44 C 44.05 7.05 42.9 5.9 41.51 5.9 L 34.62 5.9 L 34.62 1.04 C 34.62 0.77 34.52 0.5 34.32 0.3 C 34.12 0.11 33.85 0 33.57 0 C 33.01 0.01 32.55 0.48 32.56 1.04 L 32.56 5.9 L 28.9 5.9 L 28.9 1.04 C 28.91 0.77 28.8 0.5 28.6 0.3 C 28.4 0.11 28.13 0 27.86 0 C 27.29 0.01 26.83 0.48 26.84 1.04 L 26.84 5.9 L 23.18 5.9 L 23.18 1.04 C 23.19 0.77 23.08 0.5 22.88 0.3 C 22.68 0.11 22.41 0 22.14 0 C 21.57 0.01 21.11 0.48 21.12 1.04 L 21.12 5.9 L 17.46 5.9 L 17.46 1.04 C 17.47 0.77 17.36 0.5 17.16 0.3 C 16.96 0.11 16.7 0 16.42 0 Z M 8.55 7.95 L 41.51 7.95 C 41.79 7.95 41.99 8.15 41.99 8.44 L 41.99 41.23 C 41.99 41.52 41.79 41.71 41.51 41.71 L 8.55 41.71 C 8.26 41.71 8.06 41.52 8.06 41.23 L 8.06 8.44 C 8.06 8.15 8.26 7.95 8.55 7.95 Z M 29.76 10.17 C 29.19 10.17 28.72 10.63 28.72 11.2 C 28.72 11.76 29.19 12.22 29.76 12.22 L 37.33 12.22 L 37.33 19.85 C 37.32 20.23 37.51 20.57 37.84 20.76 C 38.16 20.95 38.56 20.95 38.88 20.76 C 39.2 20.57 39.4 20.23 39.39 19.85 L 39.39 11.2 C 39.39 10.93 39.28 10.66 39.09 10.47 C 38.89 10.28 38.63 10.17 38.36 10.17 Z M 11.53 10.21 C 10.97 10.21 10.5 10.67 10.5 11.24 L 10.5 19.81 C 10.5 20.18 10.7 20.52 11.02 20.7 C 11.34 20.88 11.73 20.88 12.05 20.7 C 12.37 20.52 12.56 20.18 12.56 19.81 L 12.56 12.27 L 20.22 12.27 C 20.6 12.28 20.95 12.08 21.14 11.76 C 21.33 11.44 21.33 11.04 21.14 10.72 C 20.95 10.4 20.6 10.2 20.22 10.21 Z M 11.56 28.67 C 10.99 28.68 10.54 29.15 10.55 29.71 L 10.55 38.37 C 10.55 38.93 11.01 39.39 11.58 39.39 L 20.18 39.39 C 20.55 39.39 20.89 39.2 21.07 38.88 C 21.26 38.56 21.26 38.17 21.07 37.85 C 20.89 37.54 20.55 37.34 20.18 37.34 L 12.61 37.34 L 12.61 29.71 C 12.61 29.44 12.5 29.17 12.3 28.97 C 12.11 28.78 11.84 28.67 11.56 28.67 Z M 38.39 28.71 C 37.82 28.72 37.36 29.19 37.37 29.76 L 37.37 37.3 L 29.71 37.3 C 29.14 37.3 28.68 37.76 28.68 38.32 C 28.68 38.89 29.14 39.35 29.71 39.35 L 38.4 39.35 C 38.67 39.35 38.94 39.24 39.13 39.05 C 39.32 38.86 39.43 38.6 39.43 38.32 L 39.43 29.76 C 39.44 29.48 39.33 29.21 39.13 29.01 C 38.93 28.82 38.66 28.71 38.39 28.71 Z" fill="#434445" style="fill: light-dark(rgb(67, 68, 69), rgb(240, 240, 240));" stroke="none" pointer-events="all"/></g></g><g data-cell-id="GxKN4E7oZEfdlFyxq9VF-6"><g transform="translate(0.5,0.5)"><rect x="15" y="15" width="20" height="20" fill="none" stroke="none" pointer-events="all"/><path d="M 35 24.99 C 35 25.99 34.67 26.9 34.12 27.57 C 34.03 28.99 33.26 30.19 32.18 30.74 L 32.18 30.75 C 30.87 31.64 30.09 33.17 29.85 35 L 28.64 35 L 28.64 30.75 C 28.65 29.43 29 28.58 29.75 28.06 C 30.02 27.88 30.27 27.67 30.48 27.43 C 31.03 27.66 31.52 28.12 31.83 28.77 C 31.9 28.9 32.01 28.97 32.13 28.97 C 32.18 28.97 32.24 28.95 32.3 28.92 C 32.46 28.81 32.52 28.57 32.43 28.38 L 32.43 28.38 C 32.08 27.65 31.55 27.11 30.94 26.79 C 31.25 26.24 31.42 25.58 31.42 24.78 C 31.42 24.78 31.42 24.77 31.42 24.77 C 31.42 24.41 31.38 24.06 31.29 23.73 C 32 23.57 32.62 23.15 33.08 22.56 C 33.21 22.39 33.2 22.14 33.06 22 C 32.92 21.85 32.71 21.86 32.58 22.02 C 32.18 22.53 31.64 22.88 31.03 22.98 C 30.54 21.91 29.62 21.15 28.55 21.01 C 28.62 20.33 28.88 19.73 29.27 19.26 C 29.4 19.11 29.4 18.86 29.27 18.7 C 29.14 18.55 28.92 18.55 28.79 18.7 C 28.29 19.29 27.95 20.08 27.86 20.96 C 26.6 20.77 25.63 19.52 25.63 17.99 C 25.63 17.77 25.47 17.59 25.29 17.59 C 25.1 17.59 24.95 17.77 24.95 17.99 C 24.95 18.25 24.97 18.49 25.01 18.74 C 24.54 19.22 23.94 19.47 23.34 19.47 C 23.05 19.47 22.75 19.4 22.48 19.29 C 22.48 19.29 22.47 19.28 22.47 19.28 C 22.13 19.14 21.81 18.91 21.54 18.59 C 21.41 18.43 21.19 18.43 21.06 18.59 C 20.92 18.74 20.92 18.99 21.06 19.15 C 21.34 19.47 21.65 19.73 21.99 19.91 C 21.92 20.9 21.43 21.75 20.74 22.22 C 20.34 21.52 19.75 20.96 19.02 20.69 C 18.83 20.62 18.64 20.74 18.59 20.95 C 18.54 21.15 18.63 21.38 18.81 21.44 C 19.35 21.64 19.79 22.04 20.1 22.54 C 19.89 22.6 19.67 22.64 19.44 22.64 C 19.44 22.64 19.44 22.64 19.44 22.64 L 19.41 22.64 C 18.54 22.64 17.74 23.05 17.16 23.71 C 17.02 23.86 17.02 24.12 17.15 24.27 C 17.22 24.35 17.3 24.39 17.4 24.39 C 17.47 24.39 17.56 24.35 17.63 24.28 C 18.09 23.75 18.72 23.43 19.41 23.43 L 19.45 23.43 L 19.45 23.43 L 19.45 23.43 C 21.08 23.43 22.44 22.01 22.65 20.17 C 22.88 20.22 23.11 20.26 23.35 20.26 C 24.01 20.26 24.68 20.02 25.24 19.54 C 25.45 20.09 25.77 20.57 26.17 20.94 C 25.76 21.52 25.53 22.21 25.46 22.92 C 25.29 22.88 25.12 22.87 24.94 22.87 C 24.43 22.87 23.91 23.01 23.42 23.31 C 23.26 23.42 23.2 23.66 23.29 23.85 C 23.35 23.98 23.47 24.06 23.59 24.06 C 23.64 24.06 23.69 24.04 23.74 24.01 C 24.13 23.77 24.54 23.66 24.94 23.66 C 25.12 23.66 25.3 23.68 25.46 23.72 C 25.54 24.53 25.84 25.31 26.34 25.94 C 26.41 26.02 26.5 26.06 26.59 26.06 C 26.67 26.06 26.76 26.02 26.82 25.95 C 26.96 25.8 26.97 25.55 26.83 25.39 L 26.83 25.39 C 26.38 24.83 26.14 24.12 26.12 23.39 C 26.12 23.38 26.13 23.38 26.12 23.36 C 26.12 23.35 26.12 23.33 26.12 23.32 C 26.12 22.62 26.33 21.93 26.74 21.37 C 27.17 21.62 27.66 21.77 28.18 21.77 C 28.18 21.77 28.18 21.77 28.19 21.77 C 28.19 21.77 28.19 21.77 28.19 21.77 C 29.6 21.78 30.74 23.11 30.74 24.76 C 30.48 24.67 30.2 24.63 29.92 24.63 C 29.52 24.63 29.11 24.72 28.71 24.91 C 28.54 24.99 28.46 25.22 28.53 25.42 C 28.6 25.62 28.79 25.72 28.97 25.64 C 29.28 25.49 29.6 25.42 29.92 25.42 C 30.18 25.42 30.43 25.46 30.67 25.55 C 30.58 26 30.42 26.35 30.17 26.67 C 30.15 26.69 30.13 26.71 30.12 26.74 C 29.93 26.96 29.69 27.16 29.41 27.37 C 28.43 28.04 27.96 29.25 27.97 30.74 L 27.97 34.99 L 26.81 34.99 L 26.81 30.96 C 26.81 29.48 26.01 28.07 25.01 27.57 C 24.54 27.35 24.04 26.99 23.68 26.52 C 23.16 26.93 22.54 27.17 21.87 27.17 C 21.2 27.17 20.58 26.93 20.07 26.52 C 19.56 26.92 18.94 27.15 18.28 27.15 C 16.47 27.15 15 25.43 15 23.3 C 15 21.72 15.82 20.36 16.99 19.77 C 17.31 18.08 18.59 16.81 20.13 16.81 C 20.21 16.81 20.29 16.82 20.36 16.83 C 20.94 15.84 21.92 15.18 23.03 15.18 C 23.57 15.18 24.09 15.34 24.54 15.63 C 25.04 15.23 25.65 15 26.31 15 C 27.15 15 27.92 15.38 28.49 16.01 C 28.73 15.94 28.98 15.9 29.24 15.9 C 30.54 15.9 31.67 16.82 32.17 18.13 C 33.49 18.6 34.45 20.03 34.45 21.73 C 34.45 22.07 34.41 22.4 34.34 22.71 C 34.75 23.34 35 24.13 35 24.99 Z" fill="#000000" style="fill: light-dark(rgb(0, 0, 0), rgb(240, 240, 240));" stroke="none" pointer-events="all"/></g></g></g></g></g></svg>