<?xml version="1.0" encoding="UTF-8"?>
<!DOCTYPE svg PUBLIC "-//W3C//DTD SVG 1.1//EN" "http://www.w3.org/Graphics/SVG/1.1/DTD/svg11.dtd">
<svg xmlns="http://www.w3.org/2000/svg" style="background: transparent; background-color: transparent; color-scheme: light dark;" xmlns:xlink="http://www.w3.org/1999/xlink" version="1.1" width="90px" height="50px" viewBox="0 0 90 50"><defs/><g><g data-cell-id="0"><g data-cell-id="1"><g data-cell-id="E37dNV4UN-dEf-plS1Zp-1"><g><rect x="0" y="0" width="89" height="50" fill="none" stroke="none" pointer-events="all"/><path d="M 88.49 24.22 C 78.69 9.05 62.25 0 44.5 0 C 26.76 0 10.31 9.05 0.5 24.22 L 0 25 L 0.5 25.78 C 10.3 40.95 26.75 50 44.5 50 C 62.25 50 78.69 40.95 88.49 25.77 L 89 25 L 88.49 24.22 Z M 5.37 25 C 12.59 14.78 23.19 7.9 35.08 5.48 C 33.09 6.51 31.25 7.85 29.64 9.5 C 25.59 13.62 23.36 19.11 23.36 24.94 C 23.36 30.77 25.59 36.26 29.64 40.39 C 31.36 42.13 33.32 43.53 35.43 44.57 C 23.4 42.24 12.67 35.32 5.37 25 Z M 44.72 38.48 C 37.44 38.48 31.52 32.42 31.52 24.99 C 31.52 21.39 32.89 18.01 35.38 15.46 C 37.87 12.91 41.19 11.51 44.72 11.51 C 48.25 11.51 51.57 12.91 54.07 15.46 C 56.56 18.01 57.93 21.39 57.93 24.99 C 57.93 28.59 56.56 31.98 54.07 34.53 C 51.57 37.07 48.24 38.48 44.72 38.48 Z M 54.42 44.42 C 56.42 43.39 58.25 42.05 59.88 40.39 C 63.92 36.27 66.15 30.78 66.15 24.95 C 66.15 16.58 61.5 9.3 54.7 5.63 C 66.27 8.18 76.56 15 83.62 25 C 76.5 35.08 66.11 41.92 54.42 44.42 Z" fill="#000000" style="fill: light-dark(rgb(0, 0, 0), rgb(240, 240, 240));" stroke="none" pointer-events="all"/><path d="M 40.14 25.75 C 42.55 25.75 44.5 23.75 44.5 21.29 C 44.5 18.83 42.54 16.83 40.14 16.83 C 37.73 16.83 35.78 18.83 35.78 21.29 C 35.78 23.75 37.73 25.75 40.14 25.75" fill="#000000" style="fill: light-dark(rgb(0, 0, 0), rgb(240, 240, 240));" stroke="none" pointer-events="all"/></g></g></g></g></g></svg>