<?xml version="1.0" encoding="UTF-8"?>
<!DOCTYPE svg PUBLIC "-//W3C//DTD SVG 1.1//EN" "http://www.w3.org/Graphics/SVG/1.1/DTD/svg11.dtd">
<svg xmlns="http://www.w3.org/2000/svg" style="background: transparent; background-color: transparent; color-scheme: light dark;" xmlns:xlink="http://www.w3.org/1999/xlink" version="1.1" width="47px" height="50px" viewBox="0 0 47 50"><defs/><g><g data-cell-id="0"><g data-cell-id="1"><g data-cell-id="GxKN4E7oZEfdlFyxq9VF-2"><g transform="translate(0.5,0.5)"><rect x="0" y="0" width="47" height="50" fill="none" stroke="none" pointer-events="all"/><path d="M 33.87 12.5 L 25.92 19.59 L 32.83 19.59 L 19.35 31.76 L 24.88 21.62 L 18.66 21.62 L 25.57 11.49 L 33.87 11.49 L 33.87 12.5 Z M 12.79 44.59 C 12.79 46.28 12.1 47.97 11.4 48.65 C 10.37 49.66 8.29 50 8.29 50 L 42.16 50 L 43.2 50 C 43.2 50 43.2 50 43.2 50 C 44.24 50 45.27 49.32 45.96 48.31 C 46.65 47.3 47 45.95 47 44.26 L 38.36 44.26 L 12.79 44.59 L 12.79 44.59 Z M 8.29 50 M 10.02 47.3 C 10.71 46.62 11.06 45.61 11.06 44.26 L 11.06 42.57 L 12.79 42.57 L 38.01 42.57 C 38.01 41.89 38.01 41.22 38.01 40.88 C 38.01 32.09 45.96 19.26 45.96 9.12 C 45.96 1.01 38.01 0 38.01 0 L 9.68 0 L 3.46 0 C 3.46 0 9.68 1.35 11.06 6.76 C 11.4 7.43 11.4 8.11 11.4 9.12 C 11.4 19.26 3.46 32.09 3.46 40.88 C 3.46 41.89 3.46 43.24 3.8 44.26 C 4.15 45.27 4.49 45.95 5.18 46.62 C 5.53 46.96 5.88 47.3 6.57 47.64 C 6.91 47.97 7.26 48.31 7.95 48.31 C 8.64 48.31 9.33 47.97 10.02 47.3 Z M 8.64 5.41 C 7.95 4.73 7.26 4.05 6.57 3.38 C 4.84 2.36 3.11 1.69 3.11 1.69 L 0.69 1.01 C 0.35 1.69 0 2.03 0 3.04 C 0 6.08 1.04 6.76 1.04 6.76 L 9.33 6.76 C 8.99 6.42 8.99 6.08 8.64 5.41 Z" fill="#0078d7" style="fill: light-dark(rgb(0, 120, 215), rgb(240, 240, 240));" stroke="none" pointer-events="all"/></g></g><g data-cell-id="GxKN4E7oZEfdlFyxq9VF-3"><g transform="translate(0.5,0.5)"><rect x="15.5" y="8" width="20" height="30" fill="#ffffff" style="fill: light-dark(rgb(255, 255, 255), rgb(240, 240, 240));" stroke="none" pointer-events="all"/></g></g></g></g></g></svg>