<?xml version="1.0" encoding="UTF-8"?>
<!DOCTYPE svg PUBLIC "-//W3C//DTD SVG 1.1//EN" "http://www.w3.org/Graphics/SVG/1.1/DTD/svg11.dtd">
<svg xmlns="http://www.w3.org/2000/svg" style="background: transparent; background-color: transparent; color-scheme: light dark;" xmlns:xlink="http://www.w3.org/1999/xlink" version="1.1" width="100px" height="50px" viewBox="0 0 100 50"><defs/><g><g data-cell-id="0"><g data-cell-id="1"><g data-cell-id="E37dNV4UN-dEf-plS1Zp-3"><g><rect x="0" y="0" width="100" height="50" fill="none" stroke="none" pointer-events="all"/><path d="M 70.88 17.48 L 49.37 17.48 L 42.77 13.93 L 42.77 3.91 L 85.07 0 L 85.07 13.08 L 70.88 15.85 L 70.88 17.48 L 70.88 17.48 Z M 2.26 31.31 L 99.19 31.47 L 99.17 13.43 L 71.37 19.54 L 30.92 19.54 L 2.26 27.21 C 0.57 27.9 0 31.31 2.26 31.31 Z M 29.84 39.45 C 29.84 42.9 27.05 45.69 23.61 45.7 C 20.17 45.71 17.37 42.92 17.36 39.49 C 17.34 36.04 20.11 33.23 23.55 33.2 C 26.99 33.17 29.81 35.94 29.85 39.39 Z M 43.89 39.45 C 43.89 42.9 41.11 45.69 37.67 45.7 C 34.23 45.71 31.42 42.92 31.41 39.49 C 31.39 36.04 34.17 33.23 37.61 33.2 C 41.05 33.17 43.86 35.94 43.9 39.39 Z M 57.7 39.45 C 57.7 42.9 54.91 45.69 51.47 45.7 C 48.03 45.71 45.23 42.92 45.22 39.49 C 45.2 36.04 47.97 33.23 51.41 33.2 C 54.85 33.17 57.67 35.94 57.71 39.39 Z M 71.84 39.45 C 71.84 42.9 69.06 45.69 65.62 45.7 C 62.17 45.71 59.37 42.92 59.36 39.49 C 59.34 36.04 62.11 33.23 65.56 33.2 C 69 33.17 71.81 35.94 71.85 39.39 Z M 7.89 33.28 L 4.98 33.42 C 3.36 37.46 4.71 41.15 9.17 43.88 C 14.19 46.96 20.23 49.93 21.98 49.98 L 81.38 50 C 83.13 49.95 89.17 46.98 94.19 43.9 C 98.65 41.16 100 37.46 98.38 33.43 L 95.46 33.3 C 96.34 37.07 97.1 39.62 91.64 42.22 C 87.17 44.33 82.44 46.86 81.71 47 L 21.64 46.99 C 20.91 46.85 16.19 44.31 11.73 42.2 C 6.27 39.6 7.01 37.06 7.89 33.28 Z M 0.8 5.83 L 0.8 9.97 L 41.36 11.35 L 41.36 5.76 L 0.8 5.83 Z M 85.87 39.77 C 85.87 43.22 83.08 46.02 79.64 46.03 C 76.2 46.04 73.39 43.26 73.38 39.81 C 73.36 36.36 76.14 33.55 79.58 33.52 C 83.02 33.49 85.84 36.26 85.88 39.71 Z M 94.53 36.86 C 94.53 38.84 92.94 40.42 90.98 40.43 C 89.02 40.44 87.42 38.85 87.41 36.88 C 87.4 34.92 88.98 33.32 90.94 33.31 C 92.9 33.29 94.51 34.87 94.53 36.83 Z M 15.88 36.86 C 15.88 38.84 14.29 40.42 12.33 40.43 C 10.37 40.44 8.77 38.85 8.76 36.88 C 8.75 34.92 10.33 33.32 12.29 33.31 C 14.25 33.29 15.86 34.87 15.88 36.83 Z" fill="#000000" style="fill: light-dark(rgb(0, 0, 0), rgb(240, 240, 240));" stroke="none" pointer-events="all"/></g></g></g></g></g></svg>