<?xml version="1.0" encoding="UTF-8"?>
<!DOCTYPE svg PUBLIC "-//W3C//DTD SVG 1.1//EN" "http://www.w3.org/Graphics/SVG/1.1/DTD/svg11.dtd">
<svg xmlns="http://www.w3.org/2000/svg" style="background: transparent; background-color: transparent; color-scheme: light dark;" xmlns:xlink="http://www.w3.org/1999/xlink" version="1.1" width="102px" height="52px" viewBox="0 0 102 52"><defs/><g><g data-cell-id="0"><g data-cell-id="1"><g data-cell-id="z0cUTYHKXxSm02qgGddc-31"><g transform="translate(0.5,0.5)"><path d="M 0 0 L 0 20 L 10 40 L 40 50 L 70 40 L 80 50 L 80 40 L 90 10 L 100 0 L 90 0 L 70 10 L 50 0 L 0 0" fill="none" stroke="#000000" style="stroke: light-dark(rgb(0, 0, 0), rgb(240, 240, 240));" stroke-miterlimit="10" pointer-events="stroke"/></g></g><g data-cell-id="z0cUTYHKXxSm02qgGddc-32"><g transform="translate(0.5,0.5)"><rect x="0" y="0" width="50" height="20" fill="#ffffff" style="fill: light-dark(rgb(255, 255, 255), rgb(240, 240, 240)); stroke: light-dark(rgb(0, 0, 0), rgb(240, 240, 240));" stroke="#000000" pointer-events="all"/></g></g><g data-cell-id="z0cUTYHKXxSm02qgGddc-33"><g transform="translate(0.5,0.5)"><rect x="10" y="20" width="70" height="20" fill="#ffffff" style="fill: light-dark(rgb(255, 255, 255), rgb(240, 240, 240)); stroke: light-dark(rgb(0, 0, 0), rgb(240, 240, 240));" stroke="#000000" pointer-events="all"/></g></g><g data-cell-id="z0cUTYHKXxSm02qgGddc-34"><g transform="translate(0.5,0.5)"><rect x="50" y="10" width="30" height="10" fill="#ffffff" style="fill: light-dark(rgb(255, 255, 255), rgb(240, 240, 240));" stroke="none" pointer-events="all"/></g></g><g data-cell-id="z0cUTYHKXxSm02qgGddc-37"><g transform="translate(0.5,0.5)"><path d="M 12 50 L 40 40 L 68 50 Z" fill="#ffffff" style="fill: light-dark(rgb(255, 255, 255), rgb(240, 240, 240)); stroke: light-dark(rgb(0, 0, 0), rgb(240, 240, 240));" stroke="#000000" stroke-miterlimit="10" transform="translate(0,45)scale(1,-1)translate(0,-45)" pointer-events="all"/></g></g><g data-cell-id="z0cUTYHKXxSm02qgGddc-38"><g transform="translate(0.5,0.5)"><path d="M 70 50 L 70 40 L 80 50 Z" fill="#ffffff" style="fill: light-dark(rgb(255, 255, 255), rgb(240, 240, 240)); stroke: light-dark(rgb(0, 0, 0), rgb(240, 240, 240));" stroke="#000000" stroke-miterlimit="10" transform="translate(0,45)scale(1,-1)translate(0,-45)rotate(-90,75,45)" pointer-events="all"/></g></g><g data-cell-id="z0cUTYHKXxSm02qgGddc-39"><g transform="translate(0.5,0.5)"><path d="M -5 34 L -5 24 L 15 34 Z" fill="#ffffff" style="fill: light-dark(rgb(255, 255, 255), rgb(240, 240, 240)); stroke: light-dark(rgb(0, 0, 0), rgb(240, 240, 240));" stroke="#000000" stroke-miterlimit="10" transform="translate(0,29)scale(1,-1)translate(0,-29)rotate(-90,5,29)" pointer-events="all"/></g></g><g data-cell-id="z0cUTYHKXxSm02qgGddc-41"><g transform="translate(0.5,0.5)"><path d="M 48 10 L 48 0 L 68 10 Z" fill="#ffffff" style="fill: light-dark(rgb(255, 255, 255), rgb(240, 240, 240)); stroke: light-dark(rgb(0, 0, 0), rgb(240, 240, 240));" stroke="#000000" stroke-miterlimit="10" pointer-events="all"/></g></g><g data-cell-id="z0cUTYHKXxSm02qgGddc-42"><g transform="translate(0.5,0.5)"><path d="M 70 10 L 70 0 L 90 10 Z" fill="#ffffff" style="fill: light-dark(rgb(255, 255, 255), rgb(240, 240, 240)); stroke: light-dark(rgb(0, 0, 0), rgb(240, 240, 240));" stroke="#000000" stroke-miterlimit="10" transform="translate(0,5)scale(1,-1)translate(0,-5)rotate(180,80,5)" pointer-events="all"/></g></g><g data-cell-id="z0cUTYHKXxSm02qgGddc-45"><g transform="translate(0.5,0.5)"><path d="M 90 10 L 90 0 L 100 10 Z" fill="#ffffff" style="fill: light-dark(rgb(255, 255, 255), rgb(240, 240, 240));" stroke="none" transform="translate(95,0)scale(-1,1)translate(-95,0)rotate(180,95,5)" pointer-events="all"/></g></g><g data-cell-id="z0cUTYHKXxSm02qgGddc-47"><g transform="translate(0.5,0.5)"><path d="M 69 30 L 69 20 L 99 30 Z" fill="#ffffff" style="fill: light-dark(rgb(255, 255, 255), rgb(240, 240, 240)); stroke: light-dark(rgb(0, 0, 0), rgb(240, 240, 240));" stroke="#000000" stroke-miterlimit="10" transform="rotate(90,84,25)" pointer-events="all"/></g></g></g></g></g></svg>